<svg version="1.1" id="Layer_1" xmlns="http://www.w3.org/2000/svg" xmlns:xlink="http://www.w3.org/1999/xlink" x="0px" y="0px"
	 width="100%" viewBox="0 0 1024 800" enable-background="new 0 0 1024 800" xml:space="preserve">
<path fill="#000000" opacity="1.000000" stroke="none" 
	d="
M189.296387,665.726318 
	C175.247849,653.892212 162.142746,641.567017 149.670410,628.574951 
	C138.462631,616.900146 137.137939,602.716553 147.344055,590.751465 
	C189.040680,541.868713 236.785660,500.272034 294.605957,471.262817 
	C318.539642,459.255035 343.752716,450.931274 370.282288,446.603516 
	C408.224548,440.414062 444.907990,445.558105 480.746765,458.375977 
	C522.887939,473.447845 559.618469,497.647614 593.725525,526.148193 
	C617.046082,545.635315 638.654846,566.878113 658.119812,590.226746 
	C668.338379,602.484131 668.004150,617.405212 656.887268,628.634277 
	C610.841675,675.144409 559.335205,713.891663 497.965912,738.126282 
	C464.472473,751.352783 429.658508,758.482422 393.534027,756.839783 
	C353.360901,755.012878 315.644562,743.607727 279.745758,725.741699 
	C247.198334,709.543701 217.394104,689.251770 189.296387,665.726318 
M383.876587,707.610474 
	C384.707245,707.672729 385.544006,707.690552 386.367676,707.803772 
	C421.414001,712.621887 452.208252,703.305298 477.679535,678.779053 
	C504.686554,652.774170 515.889282,620.580200 510.289642,583.478394 
	C506.158325,556.105469 492.643677,533.458923 470.996521,515.970947 
	C451.105225,499.901489 428.123749,491.728180 402.707642,491.587128 
	C385.393341,491.491028 368.899445,495.989532 353.271057,503.871307 
	C298.399506,531.544434 277.597778,601.739624 308.876190,654.567566 
	C325.779755,683.117126 350.769867,700.422485 383.876587,707.610474 
M293.396759,514.956909 
	C250.472504,539.141296 214.022430,571.065125 181.315735,607.633484 
	C182.278137,608.768921 182.669724,609.305603 183.134674,609.768738 
	C212.927795,639.445862 246.042984,664.743347 282.879639,685.071777 
	C290.451935,689.250488 298.310791,692.922607 306.127594,696.638855 
	C308.948517,697.979980 311.773376,696.295227 311.376495,693.798523 
	C311.100037,692.059326 309.505371,691.112427 308.405975,689.888977 
	C277.121674,655.074463 266.103973,614.877380 276.802032,569.155396 
	C281.391418,549.541016 290.666382,532.141357 303.719849,516.775024 
	C304.867065,515.424500 306.504211,514.138428 304.963318,512.026306 
	C303.415894,509.905182 301.579529,510.333984 299.678925,511.383545 
	C297.784332,512.429749 295.913727,513.519409 293.396759,514.956909 
M564.924988,658.403503 
	C586.062500,643.090942 606.074646,626.479004 624.426636,608.029541 
	C623.669434,606.890259 623.444031,606.436829 623.117004,606.075317 
	C595.057495,575.053162 564.105652,547.356262 528.977051,524.503967 
	C521.162415,519.420288 513.161804,514.614563 504.838470,510.377533 
	C503.266388,509.577240 501.835907,508.890015 500.471741,510.750153 
	C499.285034,512.368286 499.404968,513.788330 500.738342,515.218201 
	C501.418732,515.947815 502.038025,516.734680 502.679962,517.499756 
	C538.118408,559.740112 542.901367,620.009521 514.581055,667.247559 
	C509.418793,675.858093 503.221130,683.667725 496.436951,691.037903 
	C495.341003,692.228516 493.819611,693.318604 494.884857,695.319580 
	C495.447998,696.377380 496.125458,697.569092 497.437012,697.354492 
	C498.880646,697.118225 500.289612,696.492676 501.636597,695.869934 
	C523.784546,685.632263 544.549622,673.049133 564.924988,658.403503 
z"/>
<path fill="#000000" opacity="1.000000" stroke="none" 
	d="
M255.677704,205.812943 
	C273.254791,188.231689 290.572235,170.912064 307.884064,153.586807 
	C312.464264,149.003067 312.453796,148.997604 317.187561,153.719666 
	C321.198059,157.720276 325.108582,161.829803 329.269684,165.667404 
	C331.739899,167.945587 331.493073,169.530014 329.195312,171.771347 
	C320.727997,180.030792 312.415131,188.448654 304.055206,196.817978 
	C302.773773,198.100845 301.550446,199.441727 300.215118,200.845245 
	C301.994598,202.367889 303.890869,201.724915 305.604156,201.734451 
	C317.266754,201.799408 328.931549,201.877457 340.591949,201.704041 
	C344.530365,201.645477 345.754150,202.946335 345.576447,206.947342 
	C345.254089,214.205109 346.112732,221.504272 345.283325,228.595108 
	C343.249847,229.772598 341.374817,229.341324 339.583191,229.343918 
	C316.923767,229.376770 294.263397,229.261765 271.605530,229.454742 
	C266.934509,229.494522 264.130280,228.683090 264.821869,223.260147 
	C265.204498,220.259674 263.584198,218.977844 260.652100,219.217926 
	C260.486786,219.231476 260.313477,219.242294 260.153290,219.209061 
	C257.406342,218.638855 253.426575,220.826721 252.135986,217.202850 
	C250.696548,213.161026 251.419083,208.925156 255.677704,205.812943 
z"/>
<path fill="#000000" opacity="1.000000" stroke="none" 
	d="
M742.440918,209.441055 
	C732.362061,216.697739 729.406311,226.031143 730.133057,238.080887 
	C731.173157,255.327560 730.259644,272.685760 730.478943,289.992584 
	C730.536255,294.513092 729.211792,296.367798 724.565491,296.106750 
	C719.423462,295.817810 714.240173,295.812042 709.098511,296.102386 
	C704.378052,296.368958 702.641724,294.690277 702.700867,289.834930 
	C702.921692,271.695770 702.641724,253.550156 702.901794,235.412018 
	C702.971741,230.535217 701.402832,229.039673 696.633362,229.267975 
	C689.716919,229.599060 689.692566,229.321075 689.670227,222.590744 
	C689.652527,217.264771 689.827759,211.932114 689.611023,206.614899 
	C689.458313,202.868256 691.050720,201.162018 694.590393,201.824081 
	C707.156372,204.174377 716.024658,198.778931 723.724121,189.324768 
	C728.951660,182.905777 735.436523,177.521652 741.211975,171.532776 
	C743.642029,169.012817 745.527222,168.506439 748.156189,171.356277 
	C752.326599,175.877075 756.700684,180.229523 761.223450,184.398346 
	C763.887207,186.853622 763.546631,188.548584 761.106445,190.889313 
	C754.861938,196.879410 748.816040,203.076538 742.440918,209.441055 
z"/>
<path fill="#000000" opacity="1.000000" stroke="none" 
	d="
M730.220215,634.229919 
	C734.725159,629.754761 739.045471,625.594482 743.205566,621.279724 
	C745.270752,619.137695 746.923279,619.035461 749.035583,621.227539 
	C753.653870,626.020203 758.380371,630.711731 763.158813,635.345398 
	C765.130493,637.257263 765.194458,638.750305 763.186279,640.740906 
	C750.294617,653.519409 737.470154,666.365906 724.664368,679.230591 
	C723.129272,680.772766 721.408325,681.336182 719.292664,681.321533 
	C711.632446,681.268311 703.969421,681.192993 696.311951,681.346924 
	C692.869019,681.416138 691.532715,680.117249 691.623352,676.671082 
	C691.785400,670.513611 691.815125,664.343994 691.614380,658.188843 
	C691.497986,654.621765 693.016479,653.215088 696.338318,653.720703 
	C702.001648,654.582703 703.040100,651.670898 702.851318,646.781555 
	C702.575500,639.640503 702.819092,639.483398 709.921692,639.700073 
	C714.247070,639.831970 718.498779,638.878967 722.865540,639.397095 
	C726.329224,639.808105 727.698425,636.292969 730.220215,634.229919 
z"/>
<path fill="#000000" opacity="1.000000" stroke="none" 
	d="
M839.644287,65.812485 
	C839.643799,51.666870 839.643799,51.666870 853.143738,51.669273 
	C860.806580,51.670639 868.471863,51.786392 876.131165,51.622322 
	C879.655151,51.546829 881.268494,52.589279 881.242004,56.412655 
	C881.110352,75.402275 881.120422,94.393440 881.205383,113.383507 
	C881.221558,117.007126 879.898376,118.474060 876.208252,118.352463 
	C870.051331,118.149612 863.882751,118.216896 857.720581,118.291634 
	C854.743347,118.327736 853.549622,117.052521 853.598877,114.089249 
	C853.695679,108.260742 853.439880,102.423477 853.641663,96.600639 
	C853.772278,92.832581 852.806702,89.849831 849.844910,87.372444 
	C846.795166,84.821442 844.502014,81.459290 841.097656,79.227074 
	C839.208252,77.988266 838.027405,76.047539 838.981323,73.684685 
	C839.967346,71.242462 839.486084,68.753006 839.644287,65.812485 
z"/>
<path fill="#000000" opacity="1.000000" stroke="none" 
	d="
M410.117828,60.909576 
	C408.586761,58.891197 405.544769,57.817730 406.874237,54.972389 
	C408.117310,52.311855 410.652954,51.618622 413.584503,51.626717 
	C439.075775,51.697094 464.567810,51.747501 490.058380,51.596436 
	C494.242401,51.571644 495.612732,52.983662 495.418152,57.074669 
	C495.141418,62.892895 495.222595,68.737785 495.395294,74.564041 
	C495.494934,77.924316 494.404694,79.329384 490.846222,79.312958 
	C467.354584,79.204437 443.861908,79.195343 420.370331,79.307198 
	C416.552795,79.325371 415.198212,77.749954 415.645691,74.218979 
	C416.324097,68.866165 415.025818,64.342392 410.117828,60.909576 
z"/>
<path fill="#000000" opacity="1.000000" stroke="none" 
	d="
M834.954102,557.047302 
	C835.915710,558.005249 836.553955,558.802795 837.342224,559.403320 
	C840.514404,561.820129 840.154541,563.856506 837.376465,566.599731 
	C820.655884,583.111023 804.028442,599.718262 787.531189,616.452454 
	C784.557373,619.468994 782.599487,619.334656 779.854187,616.338745 
	C775.805420,611.920532 771.479553,607.747620 767.140808,603.607361 
	C764.870850,601.441345 764.673462,599.772339 767.042969,597.422363 
	C784.200806,580.406616 801.278870,563.310242 818.317871,546.175354 
	C820.434814,544.046448 822.039917,543.972717 824.116577,546.175659 
	C827.543396,549.810974 831.161987,553.265564 834.954102,557.047302 
z"/>
<path fill="#000000" opacity="1.000000" stroke="none" 
	d="
M335.251404,126.247231 
	C351.512238,109.979454 367.616302,94.049812 383.459656,77.864952 
	C386.641205,74.614815 388.569794,74.763329 391.447479,77.950317 
	C395.460632,82.394844 399.784790,86.569344 404.122101,90.706085 
	C406.491089,92.965553 406.284332,94.652916 404.022034,96.898094 
	C386.999634,113.791618 370.038239,130.747040 353.138367,147.763138 
	C350.875092,150.041931 349.222565,150.191299 346.975098,147.789093 
	C343.108612,143.656311 339.009552,139.741028 335.005707,135.736862 
	C330.391602,131.122391 330.390472,131.123520 335.251404,126.247231 
z"/>
<path fill="#000000" opacity="1.000000" stroke="none" 
	d="
M765.690369,153.106522 
	C763.453918,151.002274 763.478516,149.311325 765.448425,147.348846 
	C782.771484,130.091064 800.049011,112.787552 817.322632,95.480217 
	C818.844666,93.955177 820.241638,93.491249 822.007446,95.166916 
	C827.775635,100.640656 833.603149,106.051880 839.059204,111.843735 
	C838.173950,114.266655 836.679504,115.204430 835.535034,116.351837 
	C819.086731,132.841873 802.534058,149.229080 786.215027,165.845779 
	C783.091492,169.026337 781.140991,169.045120 778.233948,165.781204 
	C774.368225,161.440826 770.061768,157.492920 765.690369,153.106522 
z"/>
<path fill="#000000" opacity="1.000000" stroke="none" 
	d="
M858.981567,543.971863 
	C851.786377,538.457947 845.761353,532.123535 838.468750,524.279785 
	C842.690979,520.692017 846.579224,517.341248 850.521667,514.055481 
	C852.883667,512.086853 853.688660,509.664124 853.660034,506.591370 
	C853.540955,493.781677 853.843384,480.964233 853.508911,468.162231 
	C853.373657,462.986450 855.208618,461.407074 860.122986,461.716125 
	C865.425232,462.049591 870.771179,461.965485 876.085022,461.747253 
	C880.095520,461.582550 881.251343,463.340515 881.225525,467.106354 
	C881.106995,484.408508 881.173035,501.711914 881.178711,519.014893 
	C881.179321,520.872009 881.104858,522.706482 879.664856,524.119507 
	C872.909729,530.748047 866.675842,537.911011 858.981567,543.971863 
z"/>
<path fill="#000000" opacity="1.000000" stroke="none" 
	d="
M695.979736,51.674435 
	C709.224121,51.926945 707.906372,49.477379 708.032898,63.477512 
	C708.067505,67.304733 708.016541,71.132668 708.037170,74.960098 
	C708.052063,77.724953 707.065430,79.286415 703.952820,79.278831 
	C679.655945,79.219597 655.358826,79.222267 631.061951,79.266502 
	C627.960938,79.272148 627.000366,77.696129 627.018494,74.912361 
	C627.057617,68.921646 627.201477,62.923191 626.958130,56.941921 
	C626.785767,52.705528 628.579651,51.576710 632.578613,51.604782 
	C653.546265,51.751976 674.515442,51.674244 695.979736,51.674435 
z"/>
<path fill="#000000" opacity="1.000000" stroke="none" 
	d="
M702.789551,368.000000 
	C702.786499,353.855530 702.902649,340.209381 702.708679,326.567627 
	C702.650330,322.464447 704.032776,320.864441 708.155579,321.012115 
	C713.970337,321.220428 719.799438,321.083069 725.621521,321.016357 
	C728.814697,320.979797 730.469238,322.032166 730.452637,325.638702 
	C730.342224,349.599213 730.337219,373.560638 730.431763,397.521240 
	C730.445923,401.097626 728.892456,402.186646 725.628723,402.132660 
	C719.640686,402.033600 713.647522,402.004303 707.660889,402.138947 
	C703.922058,402.223053 702.728333,400.458374 702.767700,396.953339 
	C702.874146,387.470001 702.795227,377.984589 702.789551,368.000000 
z"/>
<path fill="#000000" opacity="1.000000" stroke="none" 
	d="
M440.973022,229.368622 
	C419.344543,229.367767 398.210938,229.231567 377.081421,229.466461 
	C372.146515,229.521317 370.657959,227.786652 370.921478,223.105988 
	C371.239014,217.465973 371.067810,211.794907 371.005280,206.138412 
	C370.970428,202.987930 372.304352,201.726135 375.516632,201.736130 
	C399.477203,201.810593 423.438232,201.812225 447.398773,201.729935 
	C450.981232,201.717636 452.049438,203.469772 452.029388,206.642990 
	C451.992523,212.466431 451.918793,218.293823 452.088898,224.112900 
	C452.197784,227.836517 451.015045,229.821106 446.957031,229.395309 
	C445.146790,229.205383 443.299713,229.366699 440.973022,229.368622 
z"/>
<path fill="#000000" opacity="1.000000" stroke="none" 
	d="
M717.474976,427.174988 
	C733.459839,427.067871 730.208435,426.553253 730.333679,439.080414 
	C730.543518,460.063232 730.277588,481.050903 730.501831,502.033447 
	C730.552856,506.803619 729.129089,508.611267 724.281982,508.306335 
	C718.641052,507.951477 712.961487,508.126190 707.300598,508.205872 
	C704.153687,508.250122 702.767395,506.935699 702.773560,503.749969 
	C702.820557,479.600891 702.827637,455.451660 702.778198,431.302612 
	C702.771851,428.226837 704.267456,427.116364 707.072815,427.211578 
	C710.391052,427.324158 713.707336,427.966675 717.474976,427.174988 
z"/>
<path fill="#000000" opacity="1.000000" stroke="none" 
	d="
M737.609985,51.673492 
	C761.360168,51.672173 784.683289,51.792732 808.003235,51.575100 
	C812.869141,51.529690 814.497681,53.137344 814.230408,57.879044 
	C813.912231,63.525364 814.082275,69.203552 814.161926,74.866226 
	C814.206543,78.038872 812.854248,79.299248 809.657104,79.290703 
	C785.669006,79.226547 761.680542,79.227364 737.692505,79.304268 
	C734.471680,79.314590 733.124390,78.015953 733.195435,74.875595 
	C733.346008,68.228249 733.521423,61.578835 733.488708,54.931244 
	C733.475037,52.158928 734.787842,51.440632 737.609985,51.673492 
z"/>
<path fill="#000000" opacity="1.000000" stroke="none" 
	d="
M730.405457,591.000000 
	C730.412170,597.489136 730.308716,603.481018 730.462097,609.466309 
	C730.546997,612.781982 729.458557,614.372925 725.915894,614.285706 
	C719.598511,614.130066 713.273682,614.177368 706.953735,614.264954 
	C703.965515,614.306396 702.764709,612.962891 702.769104,610.058899 
	C702.805603,585.935852 702.818115,561.812866 702.785095,537.689880 
	C702.780945,534.698181 704.093567,533.458923 707.025818,533.633667 
	C713.322754,534.008850 719.582397,532.873413 725.931213,533.427490 
	C729.730103,533.759094 730.741760,535.223511 730.711121,538.624573 
	C730.555298,555.915894 730.495789,573.208130 730.405457,591.000000 
z"/>
<path fill="#000000" opacity="1.000000" stroke="none" 
	d="
M528.098328,51.668839 
	C551.055725,51.669453 573.524963,51.753155 595.992554,51.596771 
	C600.128113,51.567982 602.081299,52.335548 601.695557,57.075222 
	C601.198059,63.189499 601.364990,69.369820 601.484680,75.517052 
	C601.540833,78.395729 600.398804,79.297028 597.669800,79.290794 
	C573.536926,79.235703 549.403809,79.227768 525.270935,79.288429 
	C521.998352,79.296654 520.827026,77.802925 520.864746,74.739143 
	C520.932434,69.247665 520.873657,63.754749 520.894287,58.262531 
	C520.918640,51.760994 520.930786,51.761040 528.098328,51.668839 
z"/>
<path fill="#000000" opacity="1.000000" stroke="none" 
	d="
M873.894165,249.715454 
	C881.151001,249.811401 881.161560,249.811401 881.162781,256.288574 
	C881.166870,278.904968 881.060486,301.522247 881.245789,324.137115 
	C881.284424,328.846069 879.906189,330.738342 875.014648,330.415161 
	C869.392761,330.043732 863.726135,330.224182 858.083008,330.348053 
	C854.961548,330.416565 853.589233,329.326294 853.599548,326.034851 
	C853.674194,302.088318 853.679626,278.141235 853.581726,254.194855 
	C853.566956,250.582779 855.196716,249.612595 858.442993,249.698990 
	C863.428101,249.831665 868.419678,249.722916 873.894165,249.715454 
z"/>
<path fill="#000000" opacity="1.000000" stroke="none" 
	d="
M853.615295,364.063324 
	C853.647156,355.802277 853.647034,355.782532 861.593689,355.732727 
	C866.583191,355.701447 871.575073,355.825684 876.562256,355.716064 
	C879.626587,355.648712 881.198792,356.693359 881.190918,359.995544 
	C881.133789,383.947906 881.118958,407.900513 881.181824,431.852814 
	C881.190979,435.348663 879.695068,436.497986 876.342834,436.398041 
	C870.537231,436.224945 864.712585,436.136993 858.915466,436.416992 
	C854.700867,436.620575 853.532654,434.960693 853.559143,430.921356 
	C853.704224,408.799469 853.621033,386.676086 853.615295,364.063324 
z"/>
<path fill="#000000" opacity="1.000000" stroke="none" 
	d="
M512.000000,201.765900 
	C525.819763,201.770309 539.141785,201.913712 552.458130,201.701462 
	C556.861755,201.631271 558.394226,203.209229 558.205444,207.516754 
	C557.950562,213.332977 558.072388,219.169769 558.165466,224.995605 
	C558.215942,228.156693 556.946472,229.407745 553.708740,229.396667 
	C529.733459,229.314636 505.757660,229.319931 481.782318,229.396118 
	C478.656036,229.406036 477.281799,228.560669 477.442291,225.125381 
	C477.729462,218.977432 477.713257,212.804916 477.547211,206.650131 
	C477.447723,202.962936 478.887543,201.663483 482.530365,201.722580 
	C492.184601,201.879181 501.843170,201.769791 512.000000,201.765900 
z"/>
<path fill="#000000" opacity="1.000000" stroke="none" 
	d="
M881.160522,180.000000 
	C881.161621,193.312698 881.055420,206.126816 881.225708,218.937271 
	C881.280396,223.047775 879.813110,224.571167 875.691406,224.381302 
	C869.879700,224.113586 864.045715,224.224915 858.223816,224.323364 
	C855.224304,224.374069 853.591797,223.535034 853.601807,220.126617 
	C853.672791,195.999054 853.654480,171.871109 853.591064,147.743454 
	C853.583069,144.707245 854.886536,143.636795 857.802490,143.682785 
	C864.109863,143.782272 870.423401,143.828491 876.727722,143.653717 
	C880.371033,143.552719 881.255432,145.334885 881.223999,148.550186 
	C881.123108,158.865997 881.170288,169.183289 881.160522,180.000000 
z"/>
<path fill="#000000" opacity="1.000000" stroke="none" 
	d="
M279.340637,383.000061 
	C279.336609,397.633850 279.217255,411.769104 279.400909,425.900421 
	C279.453430,429.938843 278.272919,431.594971 274.049713,431.388885 
	C268.077545,431.097473 262.079285,431.210754 256.095856,431.331787 
	C252.867584,431.397095 251.689423,430.021667 251.696503,426.872070 
	C251.750275,402.927979 251.752228,378.983582 251.674347,355.039612 
	C251.663895,351.834686 252.863220,350.576721 256.071686,350.647156 
	C262.387268,350.785828 268.710419,350.794006 275.025574,350.646729 
	C278.275391,350.570923 279.414001,351.890472 279.373596,355.064545 
	C279.257111,364.208374 279.337402,373.354706 279.340637,383.000061 
z"/>
<path fill="#000000" opacity="1.000000" stroke="none" 
	d="
M251.711029,268.000000 
	C251.713745,261.335022 251.814560,255.167908 251.679901,249.005920 
	C251.608902,245.756729 252.956741,244.572815 256.132782,244.639297 
	C262.461609,244.771698 268.798004,244.791092 275.125580,244.631226 
	C278.478058,244.546524 279.384613,246.046143 279.375244,249.140259 
	C279.303345,272.966980 279.294495,296.794128 279.383545,320.620728 
	C279.396301,324.032684 278.230499,325.420929 274.740479,325.318604 
	C268.747437,325.142853 262.738281,325.108124 256.749237,325.347931 
	C252.693771,325.510345 251.631836,323.731842 251.658997,319.985870 
	C251.783432,302.824707 251.712265,285.662079 251.711029,268.000000 
z"/>
<path fill="#000000" opacity="1.000000" stroke="none" 
	d="
M636.999878,229.364822 
	C620.693604,229.364502 604.886169,229.261047 589.081787,229.433929 
	C585.044678,229.478088 583.378296,228.290634 583.583374,224.069489 
	C583.865540,218.259949 583.753906,212.423569 583.606445,206.603882 
	C583.523743,203.340851 584.483215,201.733078 588.090576,201.745758 
	C611.882812,201.829498 635.675720,201.806824 659.468079,201.726257 
	C662.819946,201.714920 664.340332,202.894272 664.260193,206.377747 
	C664.118652,212.530548 664.109863,218.691742 664.263245,224.843979 
	C664.351074,228.367935 662.801392,229.469971 659.461487,229.402786 
	C652.143677,229.255585 644.820740,229.361710 636.999878,229.364822 
z"/>
<path fill="#000000" opacity="1.000000" stroke="none" 
	d="
M666.230713,674.876465 
	C666.818604,679.827698 665.077332,681.477844 660.393311,681.405090 
	C644.612061,681.160034 628.824524,681.336426 613.039429,681.306091 
	C611.622986,681.303345 610.046265,681.739990 608.808044,680.464783 
	C608.613342,678.552795 610.277954,678.011841 611.333435,677.109924 
	C619.414124,670.204407 627.524414,663.333252 635.647278,656.477295 
	C636.898743,655.421021 637.990662,653.870178 639.769226,653.852173 
	C647.739990,653.771484 655.713318,653.743958 663.683105,653.863831 
	C666.255981,653.902405 666.189392,656.110046 666.203308,657.943420 
	C666.244873,663.426392 666.225708,668.909790 666.230713,674.876465 
z"/>
<path fill="#000000" opacity="1.000000" stroke="none" 
	d="
M272.145691,477.178528 
	C265.832520,480.951019 259.853607,484.560059 253.857742,488.140686 
	C253.616730,488.284607 253.214828,488.159119 252.837784,488.159119 
	C251.326523,487.376221 251.738876,485.889618 251.731277,484.649292 
	C251.684280,476.988556 251.829178,469.324646 251.655579,461.667572 
	C251.574387,458.086578 252.726608,456.514648 256.500458,456.641388 
	C262.655518,456.848053 268.824921,456.787964 274.983948,456.649475 
	C278.191956,456.577301 279.607208,457.829803 279.343201,461.048981 
	C279.234711,462.371765 279.139862,463.749115 279.380249,465.037964 
	C280.500031,471.042236 278.138702,474.957245 272.145691,477.178528 
z"/>
<path fill="#000000" opacity="1.000000" stroke="none" 
	d="
M435.283569,655.396301 
	C398.511261,675.126465 355.688721,659.016113 342.656647,620.848999 
	C330.001312,583.785278 354.501801,542.926514 392.513824,537.703430 
	C423.356079,533.465515 451.445648,549.315430 462.030914,576.929382 
	C473.136597,605.900940 463.395386,636.326294 437.300323,654.159241 
	C436.751007,654.534668 436.171448,654.865784 435.283569,655.396301 
z"/>
</svg>